<svg width="188" height="45" viewBox="0 0 188 45" fill="none" xmlns="http://www.w3.org/2000/svg">
<g clip-path="url(#clip0_1_644)">
<path d="M40.6 43.3C37.4 36.3 34.1 29.1 30.8 21.8C27.5 14.5 24.1 7.3 21 0.3C20.9 0.1 20.7 0 20.4 0C20.2 0 19.9 0.1 19.8 0.3L1.37463e-06 43.3C-0.0999986 43.5 1.37836e-06 43.7 0.100001 43.9C0.200001 44 0.400001 44.1 0.600001 44.1H6.1C6.3 44.1 6.5 44 6.7 43.7L11.2 33.7H29.3V33.8C29.9 35.2 30.6 36.7 31.2 38.1C32.1 40 33 41.9 33.8 43.8C34 44.1 34.2 44.2 34.4 44.2H40C40.2 44.2 40.4 44.1 40.5 44C40.7 43.8 40.7 43.6 40.6 43.3ZM13.8 28L20.3 13.3L20.4 13.5L26.9 28H13.8Z" fill="black"/>
<path d="M58.5 17.1C55.4 17.1 52.7 18.3 50.5 20.7L50.3 20.9V0.5C50.3 0.3 50 0 49.7 0H44.8C44.5 0 44.2 0.3 44.2 0.5V43.6C44.2 43.9 44.5 44.2 44.8 44.2H49.7C50.1 44.2 50.3 44 50.3 43.6V41.3L50.5 41.5C52.7 43.7 55.5 45 58.3 45C67 45 70.9 37.7 70.9 30.9C70.9 24.2 66.6 17.1 58.5 17.1ZM57.3 39.6C52.5 39.6 50 35.3 50 31C50 26.9 52.6 22.5 57.3 22.5C61.8 22.5 64.9 26 64.9 31C64.9 35.3 62.6 39.6 57.3 39.6Z" fill="black"/>
<path d="M80.4 0H75.5C75.2 0 74.9 0.3 74.9 0.5V43.6C74.9 43.9 75.2 44.2 75.5 44.2H80.4C80.7 44.2 81 44 81 43.6V0.5C80.9 0.3 80.6 0 80.4 0Z" fill="black"/>
<path d="M98 17.0996C90.1 17.0996 85.2 22.4996 85.2 31.1996C85.2 39.2996 90.5 44.9996 98.1 44.9996C103.3 44.9996 107.6 42.3996 110.1 37.7996V37.6996C110.1 37.4996 110 37.2996 109.7 37.0996L105.6 34.7996C105.3 34.5996 105.1 34.6996 104.8 34.8996C103.2 37.4996 101.6 39.5996 98.1 39.5996C94.2 39.5996 91.5 36.9996 91.2 33.1996V33.0996H109.8C110.1 33.0996 110.4 32.8996 110.4 32.5996V31.7996C110.5 24.9996 107.2 17.0996 98 17.0996ZM91.7 27.9996V27.8996C92.5 25.1996 94.9 22.4996 98 22.4996C101.5 22.4996 103.5 25.2996 104.3 27.8996V27.9996H91.7Z" fill="black"/>
<path d="M129.9 17.9H123.9V11C123.9 10.7 123.7 10.5 123.3 10.5H118.4C118.1 10.5 117.8 10.7 117.8 11V13.9C117.8 15.2 117.8 17.9 114.2 17.9H113.2C112.9 17.9 112.6 18.2 112.6 18.4V23C112.6 23.4 113.1 23.5 113.2 23.5H117.8V34.6C117.8 41.7 120.5 45.1 126.2 45.1C127.9 45.1 129.2 44.9 130.1 44.5C130.3 44.5 130.5 44.2 130.5 44V39.2C130.5 38.9 130.2 38.7 129.9 38.7C129.8 38.7 129.6 38.8 129.5 38.8C128.8 39.1 128.1 39.4 127.1 39.4C126.9 39.4 126.6 39.4 126.4 39.4C123.9 38.8 123.9 35.6 123.9 33.4V23.6H129.9C130 23.6 130.5 23.6 130.5 23.1V18.5C130.5 18.2 130.3 17.9 129.9 17.9Z" fill="black"/>
<path d="M147.1 17.0996C139.2 17.0996 133 23.1996 133 30.9996C133 38.7996 139.2 44.8996 147.1 44.8996C155 44.8996 161.2 38.7996 161.2 30.9996C161.2 23.1996 155 17.0996 147.1 17.0996ZM147.1 39.2996C142.7 39.2996 139.1 35.5996 139.1 31.0996C139.1 26.5996 142.7 22.8996 147.1 22.8996C151.5 22.8996 155.2 26.5996 155.2 31.0996C155.2 35.5996 151.6 39.2996 147.1 39.2996Z" fill="black"/>
<path d="M178 17.0996C175.4 17.0996 172.8 18.0996 171.2 19.7996L171 19.9996L170.9 18.3996C170.9 18.1996 170.6 17.8996 170.3 17.8996H165.4C165.1 17.8996 164.8 18.1996 164.8 18.3996V43.5996C164.8 43.8996 165.1 44.1996 165.4 44.1996H170.3C170.7 44.1996 170.9 43.9996 170.9 43.5996V32.0996C170.9 27.8996 170.9 22.5996 176.5 22.5996C181.1 22.5996 181.5 25.5996 181.5 29.2996V43.6996C181.5 43.9996 181.8 44.2996 182.1 44.2996H187C187.3 44.2996 187.6 44.0996 187.6 43.6996V28.6996C187.5 20.5996 184.6 17.0996 178 17.0996Z" fill="black"/>
</g>
<defs>
<clipPath id="clip0_1_644">
<rect width="188" height="45" fill="white"/>
</clipPath>
</defs>
</svg>
